<?xml version="1.0" encoding="UTF-8" standalone="no"?>
<!DOCTYPE svg PUBLIC "-//W3C//DTD SVG 1.1//EN" "http://www.w3.org/Graphics/SVG/1.1/DTD/svg11.dtd">
<svg version="1.1" xmlns="http://www.w3.org/2000/svg" xmlns:xlink="http://www.w3.org/1999/xlink" preserveAspectRatio="xMidYMid meet" viewBox="123.06100025000005 520.6322732499996 87.17043799999998 85.14672674999997" width="87.17" height="85.15"><defs><path d="M125.99 520.64L126.1 520.65L126.2 520.67L126.31 520.68L126.41 520.71L126.51 520.73L126.62 520.77L126.72 520.8L126.82 520.84L126.92 520.88L127.02 520.93L127.12 520.99L127.21 521.04L136.68 526.94L207.9 537.2L208.01 537.22L208.11 537.24L208.22 537.27L208.32 537.3L208.41 537.33L208.51 537.37L208.61 537.4L208.7 537.45L208.79 537.49L208.88 537.54L208.97 537.6L209.05 537.65L209.13 537.71L209.21 537.77L209.29 537.84L209.36 537.9L209.44 537.97L209.51 538.04L209.57 538.12L209.64 538.2L209.7 538.27L209.76 538.36L209.81 538.44L209.86 538.53L209.91 538.61L209.96 538.7L210 538.79L210.04 538.89L210.07 538.98L210.11 539.08L210.14 539.17L210.16 539.27L210.18 539.37L210.2 539.48L210.21 539.58L210.22 539.68L210.23 539.79L210.23 539.89L210.23 540L210.22 540.1L207.8 571.43L207.79 571.54L207.77 571.64L207.75 571.74L207.73 571.84L207.71 571.94L207.68 572.04L207.65 572.14L207.61 572.23L207.57 572.33L207.53 572.42L207.48 572.51L207.43 572.59L207.38 572.68L207.33 572.76L207.27 572.84L207.21 572.92L207.14 573L207.08 573.07L207.01 573.14L206.94 573.21L206.86 573.28L206.78 573.34L206.71 573.4L206.63 573.46L206.54 573.51L206.46 573.56L206.37 573.61L206.28 573.66L206.19 573.7L206.1 573.74L206 573.78L205.91 573.81L205.81 573.84L205.71 573.86L205.61 573.88L205.51 573.9L205.41 573.91L205.3 573.92L205.2 573.93L205.09 573.93L154.3 573.93L150.37 583.75L204.75 583.75L204.86 583.76L204.97 583.76L205.08 583.77L205.19 583.79L205.3 583.81L205.4 583.83L205.51 583.86L205.61 583.89L205.71 583.93L205.81 583.97L205.9 584.01L206 584.06L206.09 584.11L206.18 584.16L206.27 584.22L206.35 584.28L206.44 584.34L206.52 584.41L206.6 584.48L206.67 584.55L206.74 584.62L206.81 584.7L206.88 584.78L206.94 584.86L207 584.95L207.06 585.04L207.11 585.13L207.16 585.22L207.21 585.31L207.25 585.41L207.29 585.51L207.33 585.61L207.36 585.71L207.39 585.81L207.41 585.92L207.43 586.03L207.44 586.13L207.46 586.24L207.46 586.35L207.47 586.47L207.46 586.58L207.46 586.69L207.44 586.8L207.43 586.91L207.41 587.01L207.39 587.12L207.36 587.22L207.33 587.32L207.29 587.42L207.25 587.52L207.21 587.62L207.16 587.71L207.11 587.81L207.06 587.9L207 587.98L206.94 588.07L206.88 588.15L206.81 588.23L206.74 588.31L206.67 588.39L206.6 588.46L206.52 588.53L206.44 588.59L206.35 588.66L206.27 588.72L206.18 588.77L206.09 588.83L206 588.88L205.9 588.92L205.81 588.97L205.71 589.01L205.61 589.04L205.51 589.07L205.4 589.1L205.3 589.13L205.19 589.14L205.08 589.16L204.97 589.17L204.86 589.18L204.75 589.18L146.35 589.18L146.28 589.18L146.22 589.18L146.15 589.17L146.08 589.17L146.02 589.16L145.95 589.15L145.89 589.14L145.82 589.13L145.76 589.11L145.69 589.1L145.63 589.08L145.56 589.06L145.5 589.04L145.44 589.02L145.38 589L145.32 588.97L145.26 588.95L145.2 588.92L145.14 588.89L145.08 588.86L145.02 588.83L144.97 588.8L144.91 588.76L144.85 588.73L144.8 588.69L144.75 588.65L144.69 588.61L144.64 588.57L144.59 588.53L144.54 588.49L144.49 588.44L144.45 588.4L144.4 588.35L144.35 588.3L144.31 588.25L144.27 588.2L144.22 588.15L144.18 588.09L144.14 588.04L144.1 587.98L144.07 587.93L144.03 587.87L144 587.81L143.96 587.76L143.93 587.7L143.9 587.64L143.88 587.58L143.85 587.52L143.83 587.45L143.8 587.39L143.78 587.33L143.76 587.27L143.74 587.2L143.72 587.14L143.71 587.08L143.69 587.01L143.68 586.95L143.67 586.88L143.66 586.82L143.65 586.75L143.65 586.69L143.64 586.62L143.64 586.56L143.64 586.49L143.64 586.43L143.64 586.36L143.64 586.29L143.65 586.23L143.65 586.16L143.66 586.1L143.67 586.03L143.68 585.97L143.7 585.9L143.71 585.84L143.73 585.77L143.74 585.71L143.76 585.64L143.78 585.58L143.81 585.52L143.83 585.45L149.54 571.22L133.54 531.39L124.34 525.65L124.24 525.59L124.15 525.52L124.07 525.46L123.98 525.39L123.9 525.31L123.83 525.24L123.75 525.16L123.68 525.08L123.62 524.99L123.55 524.91L123.5 524.82L123.44 524.73L123.39 524.64L123.34 524.55L123.3 524.45L123.26 524.36L123.22 524.26L123.19 524.16L123.16 524.06L123.13 523.96L123.11 523.86L123.09 523.75L123.08 523.65L123.07 523.55L123.06 523.44L123.06 523.34L123.06 523.23L123.07 523.13L123.08 523.02L123.09 522.92L123.11 522.81L123.14 522.71L123.16 522.61L123.19 522.5L123.23 522.4L123.27 522.3L123.31 522.2L123.36 522.1L123.41 522.01L123.47 521.91L123.53 521.82L123.6 521.73L123.67 521.64L123.74 521.55L123.81 521.47L123.88 521.4L123.96 521.32L124.04 521.26L124.13 521.19L124.21 521.13L124.3 521.07L124.39 521.01L124.48 520.96L124.57 520.91L124.67 520.87L124.77 520.83L124.86 520.79L124.96 520.76L125.06 520.73L125.16 520.7L125.27 520.68L125.37 520.66L125.47 520.65L125.58 520.64L125.68 520.63L125.78 520.63L125.89 520.63L125.99 520.64ZM202.58 568.51L204.62 542.21L140 532.91L154.3 568.51L202.58 568.51Z" id="hAmIH16Qk"></path><path d="M193.16 597.92C193.16 602.26 196.69 605.78 201.02 605.78C205.35 605.78 208.87 602.26 208.87 597.92C208.87 593.59 205.35 590.07 201.02 590.07C196.69 590.07 193.16 593.59 193.16 597.92Z" id="h14v7e8H1n"></path><path d="M149.33 597.92C149.33 602.26 152.86 605.78 157.19 605.78C161.52 605.78 165.05 602.26 165.05 597.92C165.05 593.59 161.52 590.07 157.19 590.07C152.86 590.07 149.33 593.59 149.33 597.92Z" id="a5C3APBE2"></path><path d="M125.99 520.64L126.1 520.65L126.2 520.67L126.31 520.68L126.41 520.71L126.51 520.73L126.62 520.77L126.72 520.8L126.82 520.84L126.92 520.88L127.02 520.93L127.12 520.99L127.21 521.04L136.68 526.94L207.9 537.2L208.01 537.22L208.11 537.24L208.22 537.27L208.32 537.3L208.41 537.33L208.51 537.37L208.61 537.4L208.7 537.45L208.79 537.49L208.88 537.54L208.97 537.6L209.05 537.65L209.13 537.71L209.21 537.77L209.29 537.84L209.36 537.9L209.44 537.97L209.51 538.04L209.57 538.12L209.64 538.2L209.7 538.27L209.76 538.36L209.81 538.44L209.86 538.53L209.91 538.61L209.96 538.7L210 538.79L210.04 538.89L210.07 538.98L210.11 539.08L210.14 539.17L210.16 539.27L210.18 539.37L210.2 539.48L210.21 539.58L210.22 539.68L210.23 539.79L210.23 539.89L210.23 540L210.22 540.1L207.8 571.43L207.79 571.54L207.77 571.64L207.75 571.74L207.73 571.84L207.71 571.94L207.68 572.04L207.65 572.14L207.61 572.23L207.57 572.33L207.53 572.42L207.48 572.51L207.43 572.59L207.38 572.68L207.33 572.76L207.27 572.84L207.21 572.92L207.14 573L207.08 573.07L207.01 573.14L206.94 573.21L206.86 573.28L206.78 573.34L206.71 573.4L206.63 573.46L206.54 573.51L206.46 573.56L206.37 573.61L206.28 573.66L206.19 573.7L206.1 573.74L206 573.78L205.91 573.81L205.81 573.84L205.71 573.86L205.61 573.88L205.51 573.9L205.41 573.91L205.3 573.92L205.2 573.93L205.09 573.93L154.3 573.93L150.37 583.75L204.75 583.75L204.86 583.76L204.97 583.76L205.08 583.77L205.19 583.79L205.3 583.81L205.4 583.83L205.51 583.86L205.61 583.89L205.71 583.93L205.81 583.97L205.9 584.01L206 584.06L206.09 584.11L206.18 584.16L206.27 584.22L206.35 584.28L206.44 584.34L206.52 584.41L206.6 584.48L206.67 584.55L206.74 584.62L206.81 584.7L206.88 584.78L206.94 584.86L207 584.95L207.06 585.04L207.11 585.13L207.16 585.22L207.21 585.31L207.25 585.41L207.29 585.51L207.33 585.61L207.36 585.71L207.39 585.81L207.41 585.92L207.43 586.03L207.44 586.13L207.46 586.24L207.46 586.35L207.47 586.47L207.46 586.58L207.46 586.69L207.44 586.8L207.43 586.91L207.41 587.01L207.39 587.12L207.36 587.22L207.33 587.32L207.29 587.42L207.25 587.52L207.21 587.62L207.16 587.71L207.11 587.81L207.06 587.9L207 587.98L206.94 588.07L206.88 588.15L206.81 588.23L206.74 588.31L206.67 588.39L206.6 588.46L206.52 588.53L206.44 588.59L206.35 588.66L206.27 588.72L206.18 588.77L206.09 588.83L206 588.88L205.9 588.92L205.81 588.97L205.71 589.01L205.61 589.04L205.51 589.07L205.4 589.1L205.3 589.13L205.19 589.14L205.08 589.16L204.97 589.17L204.86 589.18L204.75 589.18L146.35 589.18L146.28 589.18L146.22 589.18L146.15 589.17L146.08 589.17L146.02 589.16L145.95 589.15L145.89 589.14L145.82 589.13L145.76 589.11L145.69 589.1L145.63 589.08L145.56 589.06L145.5 589.04L145.44 589.02L145.38 589L145.32 588.97L145.26 588.95L145.2 588.92L145.14 588.89L145.08 588.86L145.02 588.83L144.97 588.8L144.91 588.76L144.85 588.73L144.8 588.69L144.75 588.65L144.69 588.61L144.64 588.57L144.59 588.53L144.54 588.49L144.49 588.44L144.45 588.4L144.4 588.35L144.35 588.3L144.31 588.25L144.27 588.2L144.22 588.15L144.18 588.09L144.14 588.04L144.1 587.98L144.07 587.93L144.03 587.87L144 587.81L143.96 587.76L143.93 587.7L143.9 587.64L143.88 587.58L143.85 587.52L143.83 587.45L143.8 587.39L143.78 587.33L143.76 587.27L143.74 587.2L143.72 587.14L143.71 587.08L143.69 587.01L143.68 586.95L143.67 586.88L143.66 586.82L143.65 586.75L143.65 586.69L143.64 586.62L143.64 586.56L143.64 586.49L143.64 586.43L143.64 586.36L143.64 586.29L143.65 586.23L143.65 586.16L143.66 586.1L143.67 586.03L143.68 585.97L143.7 585.9L143.71 585.84L143.73 585.77L143.74 585.71L143.76 585.64L143.78 585.58L143.81 585.52L143.83 585.45L149.54 571.22L133.54 531.39L124.34 525.65L124.24 525.59L124.15 525.52L124.07 525.46L123.98 525.39L123.9 525.31L123.83 525.24L123.75 525.16L123.68 525.08L123.62 524.99L123.55 524.91L123.5 524.82L123.44 524.73L123.39 524.64L123.34 524.55L123.3 524.45L123.26 524.36L123.22 524.26L123.19 524.16L123.16 524.06L123.13 523.96L123.11 523.86L123.09 523.75L123.08 523.65L123.07 523.55L123.06 523.44L123.06 523.34L123.06 523.23L123.07 523.13L123.08 523.02L123.09 522.92L123.11 522.81L123.14 522.71L123.16 522.61L123.19 522.5L123.23 522.4L123.27 522.3L123.31 522.2L123.36 522.1L123.41 522.01L123.47 521.91L123.53 521.82L123.6 521.73L123.67 521.64L123.74 521.55L123.81 521.47L123.88 521.4L123.96 521.32L124.04 521.26L124.13 521.19L124.21 521.13L124.3 521.07L124.39 521.01L124.48 520.96L124.57 520.91L124.67 520.87L124.77 520.83L124.86 520.79L124.96 520.76L125.06 520.73L125.16 520.7L125.27 520.68L125.37 520.66L125.47 520.65L125.58 520.64L125.68 520.63L125.78 520.63L125.89 520.63L125.99 520.64ZM202.58 568.51L204.62 542.21L140 532.91L154.3 568.51L202.58 568.51Z" id="aX9SI43iH"></path><path d="M193.16 597.92C193.16 602.26 196.69 605.78 201.02 605.78C205.35 605.78 208.87 602.26 208.87 597.92C208.87 593.59 205.35 590.07 201.02 590.07C196.69 590.07 193.16 593.59 193.16 597.92Z" id="b6FTZc3xIJ"></path><path d="M149.33 597.92C149.33 602.26 152.86 605.78 157.19 605.78C161.52 605.78 165.05 602.26 165.05 597.92C165.05 593.59 161.52 590.07 157.19 590.07C152.86 590.07 149.33 593.59 149.33 597.92Z" id="fAYt2c9Ca"></path></defs><g><g><g><use xlink:href="#hAmIH16Qk" opacity="1" fill="#ee3138" fill-opacity="1"></use><g><use xlink:href="#hAmIH16Qk" opacity="1" fill-opacity="0" stroke="#000000" stroke-width="1" stroke-opacity="0"></use></g></g><g><use xlink:href="#h14v7e8H1n" opacity="1" fill="#ee3138" fill-opacity="1"></use><g><use xlink:href="#h14v7e8H1n" opacity="1" fill-opacity="0" stroke="#000000" stroke-width="1" stroke-opacity="0"></use></g></g><g><use xlink:href="#a5C3APBE2" opacity="1" fill="#ee3138" fill-opacity="1"></use><g><use xlink:href="#a5C3APBE2" opacity="1" fill-opacity="0" stroke="#000000" stroke-width="1" stroke-opacity="0"></use></g></g><g><use xlink:href="#aX9SI43iH" opacity="1" fill="#ee3138" fill-opacity="1"></use><g><use xlink:href="#aX9SI43iH" opacity="1" fill-opacity="0" stroke="#000000" stroke-width="1" stroke-opacity="0"></use></g></g><g><use xlink:href="#b6FTZc3xIJ" opacity="1" fill="#ee3138" fill-opacity="1"></use><g><use xlink:href="#b6FTZc3xIJ" opacity="1" fill-opacity="0" stroke="#000000" stroke-width="1" stroke-opacity="0"></use></g></g><g><use xlink:href="#fAYt2c9Ca" opacity="1" fill="#ee3138" fill-opacity="1"></use><g><use xlink:href="#fAYt2c9Ca" opacity="1" fill-opacity="0" stroke="#000000" stroke-width="1" stroke-opacity="0"></use></g></g></g></g></svg>