<?xml version="1.0" encoding="UTF-8" standalone="no"?>
<!DOCTYPE svg PUBLIC "-//W3C//DTD SVG 1.1//EN" "http://www.w3.org/Graphics/SVG/1.1/DTD/svg11.dtd">
<svg version="1.1" xmlns="http://www.w3.org/2000/svg" xmlns:xlink="http://www.w3.org/1999/xlink" preserveAspectRatio="xMidYMid meet" viewBox="234.7624676258999 440.5475539568345 75.59700000000004 86.83499999999998" width="71.6" height="82.83"><defs><path d="M301.93 501.65C301.93 502.81 301.93 508.57 301.93 518.96L241.19 518.96C241.19 508.57 241.19 502.81 241.19 501.65C241.19 500.16 239.97 498.94 238.47 498.94C236.97 498.94 235.76 500.16 235.76 501.65C235.76 503.65 235.76 519.67 235.76 521.67C235.76 523.17 236.98 524.38 238.47 524.38C245.09 524.38 298.03 524.38 304.65 524.38C306.14 524.38 307.36 523.17 307.36 521.67C307.36 519.67 307.36 503.65 307.36 501.65C307.36 500.16 306.14 498.94 304.65 498.94C303.15 498.94 301.93 500.16 301.93 501.65Z" id="k3zI9CkfsK"></path><path d="M281.64 441.56L281.75 441.57L281.86 441.58L281.96 441.6L282.07 441.63L282.17 441.65L282.27 441.69L282.38 441.72L282.47 441.76L282.57 441.8L282.66 441.85L282.76 441.9L282.85 441.95L282.93 442.01L283.02 442.07L283.1 442.13L283.18 442.2L283.26 442.27L283.34 442.34L283.41 442.42L283.48 442.49L283.54 442.58L283.61 442.66L283.67 442.74L283.72 442.83L283.78 442.92L283.83 443.01L283.87 443.11L283.92 443.2L283.96 443.3L283.99 443.4L284.02 443.51L284.05 443.61L284.08 443.71L284.09 443.82L284.11 443.93L284.12 444.04L284.13 444.15L284.13 444.26L284.13 469.32L298.37 469.32L298.45 469.32L298.53 469.32L298.61 469.33L298.68 469.33L298.76 469.34L298.84 469.36L298.92 469.37L298.99 469.39L299.07 469.41L299.15 469.43L299.22 469.45L299.29 469.48L299.37 469.51L299.44 469.54L299.51 469.57L299.58 469.6L299.65 469.64L299.71 469.67L299.78 469.71L299.85 469.75L299.91 469.8L299.97 469.84L300.03 469.89L300.09 469.94L300.15 469.99L300.21 470.04L300.27 470.09L300.32 470.15L300.37 470.2L300.43 470.26L300.48 470.32L300.52 470.38L300.57 470.45L300.61 470.51L300.66 470.58L300.7 470.64L300.74 470.71L300.78 470.78L300.81 470.85L300.85 470.93L300.88 471L300.91 471.07L300.93 471.15L300.96 471.23L300.98 471.3L301 471.38L301.02 471.45L301.03 471.53L301.05 471.61L301.06 471.68L301.07 471.76L301.07 471.84L301.08 471.92L301.08 471.99L301.08 472.07L301.08 472.15L301.07 472.23L301.07 472.3L301.06 472.38L301.05 472.46L301.03 472.53L301.02 472.61L301 472.68L300.98 472.76L300.96 472.83L300.93 472.91L300.91 472.98L300.88 473.05L300.85 473.12L300.82 473.2L300.78 473.27L300.74 473.33L300.71 473.4L300.66 473.47L300.62 473.54L300.58 473.6L300.53 473.67L300.48 473.73L300.43 473.79L300.38 473.85L273.58 503.48L273.54 503.52L273.5 503.56L273.46 503.6L273.42 503.64L273.37 503.68L273.33 503.72L273.29 503.75L273.24 503.79L273.2 503.82L273.15 503.86L273.11 503.89L273.06 503.92L273.01 503.95L272.96 503.98L272.92 504.01L272.87 504.04L272.82 504.06L272.77 504.09L272.72 504.11L272.66 504.14L272.61 504.16L272.56 504.18L272.51 504.2L272.45 504.22L272.4 504.24L272.35 504.26L272.29 504.27L272.24 504.29L272.18 504.3L272.13 504.31L272.07 504.32L272.02 504.33L271.96 504.34L271.9 504.35L271.85 504.36L271.79 504.36L271.73 504.37L271.68 504.37L271.62 504.37L271.56 504.37L271.52 504.37L271.48 504.37L271.44 504.37L271.4 504.36L271.36 504.36L271.32 504.35L271.28 504.34L271.24 504.34L271.19 504.33L271.15 504.32L271.1 504.3L271.06 504.29L271.01 504.28L270.97 504.26L270.92 504.25L270.87 504.23L270.82 504.21L270.78 504.19L270.73 504.17L270.68 504.15L270.63 504.12L270.57 504.1L270.52 504.08L270.47 504.05L270.42 504.02L270.36 503.99L270.31 503.96L270.26 503.93L270.2 503.9L270.14 503.87L270.09 503.83L270.03 503.8L269.97 503.76L269.91 503.72L269.85 503.69L269.8 503.65L269.73 503.61L269.67 503.56L269.61 503.52L269.55 503.48L242.74 473.85L242.69 473.79L242.64 473.73L242.59 473.67L242.54 473.6L242.5 473.54L242.46 473.47L242.42 473.4L242.38 473.33L242.34 473.27L242.31 473.2L242.27 473.12L242.24 473.05L242.22 472.98L242.19 472.91L242.17 472.83L242.14 472.76L242.12 472.68L242.11 472.61L242.09 472.53L242.08 472.46L242.07 472.38L242.06 472.3L242.05 472.23L242.05 472.15L242.04 472.07L242.04 471.99L242.05 471.92L242.05 471.84L242.06 471.76L242.07 471.68L242.08 471.61L242.09 471.53L242.11 471.45L242.12 471.38L242.14 471.3L242.17 471.23L242.19 471.15L242.22 471.07L242.25 471L242.28 470.93L242.31 470.85L242.35 470.78L242.38 470.71L242.42 470.64L242.47 470.58L242.51 470.51L242.55 470.45L242.6 470.38L242.65 470.32L242.7 470.26L242.75 470.2L242.8 470.15L242.86 470.09L242.91 470.04L242.97 469.99L243.03 469.94L243.09 469.89L243.15 469.84L243.22 469.8L243.28 469.75L243.34 469.71L243.41 469.67L243.48 469.64L243.55 469.6L243.62 469.57L243.69 469.54L243.76 469.51L243.83 469.48L243.91 469.45L243.98 469.43L244.06 469.41L244.13 469.39L244.21 469.37L244.29 469.36L244.36 469.34L244.44 469.33L244.52 469.33L244.6 469.32L244.68 469.32L244.76 469.32L258.99 469.32L258.99 444.26L258.99 444.15L259 444.04L259.01 443.93L259.03 443.82L259.05 443.71L259.07 443.61L259.1 443.51L259.13 443.4L259.17 443.3L259.21 443.2L259.25 443.11L259.3 443.01L259.35 442.92L259.4 442.83L259.46 442.74L259.52 442.66L259.58 442.58L259.65 442.49L259.71 442.42L259.79 442.34L259.86 442.27L259.94 442.2L260.02 442.13L260.1 442.07L260.19 442.01L260.28 441.95L260.37 441.9L260.46 441.85L260.55 441.8L260.65 441.76L260.75 441.72L260.85 441.69L260.95 441.65L261.05 441.63L261.16 441.6L261.26 441.58L261.37 441.57L261.48 441.56L261.59 441.55L261.7 441.55L281.42 441.55L281.53 441.55L281.64 441.56ZM264.42 472.03L264.41 472.1L264.41 472.17L264.41 472.24L264.4 472.31L264.39 472.38L264.38 472.44L264.37 472.51L264.36 472.58L264.35 472.65L264.33 472.71L264.31 472.78L264.29 472.84L264.27 472.91L264.25 472.97L264.22 473.04L264.2 473.1L264.17 473.16L264.14 473.22L264.11 473.28L264.08 473.34L264.04 473.4L264.01 473.46L263.97 473.52L263.93 473.58L263.89 473.63L263.85 473.69L263.81 473.74L263.76 473.8L263.72 473.85L263.67 473.9L263.62 473.95L263.59 473.98L263.55 474.01L263.51 474.04L263.48 474.08L263.43 474.11L263.39 474.14L263.35 474.17L263.3 474.2L263.25 474.22L263.2 474.25L263.15 474.28L263.09 474.31L263.04 474.34L262.98 474.36L262.92 474.39L262.86 474.41L262.79 474.44L262.73 474.46L262.66 474.49L262.59 474.51L262.52 474.53L262.45 474.56L262.37 474.58L262.29 474.6L262.22 474.62L262.14 474.64L262.05 474.66L261.97 474.68L261.88 474.7L261.79 474.72L261.7 474.74L250.87 474.74L271.56 497.61L292.25 474.74L281.42 474.74L281.35 474.74L281.28 474.74L281.21 474.73L281.14 474.73L281.07 474.72L281 474.71L280.94 474.7L280.87 474.69L280.8 474.67L280.74 474.66L280.67 474.64L280.6 474.62L280.54 474.6L280.47 474.57L280.41 474.55L280.35 474.52L280.28 474.5L280.22 474.47L280.16 474.43L280.1 474.4L280.04 474.37L279.98 474.33L279.93 474.3L279.87 474.26L279.81 474.22L279.76 474.18L279.7 474.13L279.65 474.09L279.6 474.04L279.55 474L279.5 473.95L279.45 473.9L279.4 473.85L279.36 473.8L279.31 473.74L279.27 473.69L279.23 473.63L279.19 473.58L279.15 473.52L279.11 473.46L279.08 473.4L279.05 473.34L279.01 473.28L278.98 473.22L278.95 473.16L278.93 473.1L278.9 473.04L278.87 472.97L278.85 472.91L278.83 472.84L278.81 472.78L278.79 472.71L278.78 472.65L278.76 472.58L278.75 472.51L278.74 472.44L278.73 472.38L278.72 472.31L278.71 472.24L278.71 472.17L278.71 472.1L278.71 472.03L278.71 446.97L264.42 446.97L264.42 472.03Z" id="e31NHXH6u"></path><path d="M301.93 501.65C301.93 502.81 301.93 508.57 301.93 518.96L241.19 518.96C241.19 508.57 241.19 502.81 241.19 501.65C241.19 500.16 239.97 498.94 238.47 498.94C236.97 498.94 235.76 500.16 235.76 501.65C235.76 503.65 235.76 519.67 235.76 521.67C235.76 523.17 236.98 524.38 238.47 524.38C245.09 524.38 298.03 524.38 304.65 524.38C306.14 524.38 307.36 523.17 307.36 521.67C307.36 519.67 307.36 503.65 307.36 501.65C307.36 500.16 306.14 498.94 304.65 498.94C303.15 498.94 301.93 500.16 301.93 501.65Z" id="d1RrGK5kj5"></path><path d="M281.64 441.56L281.75 441.57L281.86 441.58L281.96 441.6L282.07 441.63L282.17 441.65L282.27 441.69L282.38 441.72L282.47 441.76L282.57 441.8L282.66 441.85L282.76 441.9L282.85 441.95L282.93 442.01L283.02 442.07L283.1 442.13L283.18 442.2L283.26 442.27L283.34 442.34L283.41 442.42L283.48 442.49L283.54 442.58L283.61 442.66L283.67 442.74L283.72 442.83L283.78 442.92L283.83 443.01L283.87 443.11L283.92 443.2L283.96 443.3L283.99 443.4L284.02 443.51L284.05 443.61L284.08 443.71L284.09 443.82L284.11 443.93L284.12 444.04L284.13 444.15L284.13 444.26L284.13 469.32L298.37 469.32L298.45 469.32L298.53 469.32L298.61 469.33L298.68 469.33L298.76 469.34L298.84 469.36L298.92 469.37L298.99 469.39L299.07 469.41L299.15 469.43L299.22 469.45L299.29 469.48L299.37 469.51L299.44 469.54L299.51 469.57L299.58 469.6L299.65 469.64L299.71 469.67L299.78 469.71L299.85 469.75L299.91 469.8L299.97 469.84L300.03 469.89L300.09 469.94L300.15 469.99L300.21 470.04L300.27 470.09L300.32 470.15L300.37 470.2L300.43 470.26L300.48 470.32L300.52 470.38L300.57 470.45L300.61 470.51L300.66 470.58L300.7 470.64L300.74 470.71L300.78 470.78L300.81 470.85L300.85 470.93L300.88 471L300.91 471.07L300.93 471.15L300.96 471.23L300.98 471.3L301 471.38L301.02 471.45L301.03 471.53L301.05 471.61L301.06 471.68L301.07 471.76L301.07 471.84L301.08 471.92L301.08 471.99L301.08 472.07L301.08 472.15L301.07 472.23L301.07 472.3L301.06 472.38L301.05 472.46L301.03 472.53L301.02 472.61L301 472.68L300.98 472.76L300.96 472.83L300.93 472.91L300.91 472.98L300.88 473.05L300.85 473.12L300.82 473.2L300.78 473.27L300.74 473.33L300.71 473.4L300.66 473.47L300.62 473.54L300.58 473.6L300.53 473.67L300.48 473.73L300.43 473.79L300.38 473.85L273.58 503.48L273.54 503.52L273.5 503.56L273.46 503.6L273.42 503.64L273.37 503.68L273.33 503.72L273.29 503.75L273.24 503.79L273.2 503.82L273.15 503.86L273.11 503.89L273.06 503.92L273.01 503.95L272.96 503.98L272.92 504.01L272.87 504.04L272.82 504.06L272.77 504.09L272.72 504.11L272.66 504.14L272.61 504.16L272.56 504.18L272.51 504.2L272.45 504.22L272.4 504.24L272.35 504.26L272.29 504.27L272.24 504.29L272.18 504.3L272.13 504.31L272.07 504.32L272.02 504.33L271.96 504.34L271.9 504.35L271.85 504.36L271.79 504.36L271.73 504.37L271.68 504.37L271.62 504.37L271.56 504.37L271.52 504.37L271.48 504.37L271.44 504.37L271.4 504.36L271.36 504.36L271.32 504.35L271.28 504.34L271.24 504.34L271.19 504.33L271.15 504.32L271.1 504.3L271.06 504.29L271.01 504.28L270.97 504.26L270.92 504.25L270.87 504.23L270.82 504.21L270.78 504.19L270.73 504.17L270.68 504.15L270.63 504.12L270.57 504.1L270.52 504.08L270.47 504.05L270.42 504.02L270.36 503.99L270.31 503.96L270.26 503.93L270.2 503.9L270.14 503.87L270.09 503.83L270.03 503.8L269.97 503.76L269.91 503.72L269.85 503.69L269.8 503.65L269.73 503.61L269.67 503.56L269.61 503.52L269.55 503.48L242.74 473.85L242.69 473.79L242.64 473.73L242.59 473.67L242.54 473.6L242.5 473.54L242.46 473.47L242.42 473.4L242.38 473.33L242.34 473.27L242.31 473.2L242.27 473.12L242.24 473.05L242.22 472.98L242.19 472.91L242.17 472.83L242.14 472.76L242.12 472.68L242.11 472.61L242.09 472.53L242.08 472.46L242.07 472.38L242.06 472.3L242.05 472.23L242.05 472.15L242.04 472.07L242.04 471.99L242.05 471.92L242.05 471.84L242.06 471.76L242.07 471.68L242.08 471.61L242.09 471.53L242.11 471.45L242.12 471.38L242.14 471.3L242.17 471.23L242.19 471.15L242.22 471.07L242.25 471L242.28 470.93L242.31 470.85L242.35 470.78L242.38 470.71L242.42 470.64L242.47 470.58L242.51 470.51L242.55 470.45L242.6 470.38L242.65 470.32L242.7 470.26L242.75 470.2L242.8 470.15L242.86 470.09L242.91 470.04L242.97 469.99L243.03 469.94L243.09 469.89L243.15 469.84L243.22 469.8L243.28 469.75L243.34 469.71L243.41 469.67L243.48 469.64L243.55 469.6L243.62 469.57L243.69 469.54L243.76 469.51L243.83 469.48L243.91 469.45L243.98 469.43L244.06 469.41L244.13 469.39L244.21 469.37L244.29 469.36L244.36 469.34L244.44 469.33L244.52 469.33L244.6 469.32L244.68 469.32L244.76 469.32L258.99 469.32L258.99 444.26L258.99 444.15L259 444.04L259.01 443.93L259.03 443.82L259.05 443.71L259.07 443.61L259.1 443.51L259.13 443.4L259.17 443.3L259.21 443.2L259.25 443.11L259.3 443.01L259.35 442.92L259.4 442.83L259.46 442.74L259.52 442.66L259.58 442.58L259.65 442.49L259.71 442.42L259.79 442.34L259.86 442.27L259.94 442.2L260.02 442.13L260.1 442.07L260.19 442.01L260.28 441.95L260.37 441.9L260.46 441.85L260.55 441.8L260.65 441.76L260.75 441.72L260.85 441.69L260.95 441.65L261.05 441.63L261.16 441.6L261.26 441.58L261.37 441.57L261.48 441.56L261.59 441.55L261.7 441.55L281.42 441.55L281.53 441.55L281.64 441.56ZM264.42 472.03L264.41 472.1L264.41 472.17L264.41 472.24L264.4 472.31L264.39 472.38L264.38 472.44L264.37 472.51L264.36 472.58L264.35 472.65L264.33 472.71L264.31 472.78L264.29 472.84L264.27 472.91L264.25 472.97L264.22 473.04L264.2 473.1L264.17 473.16L264.14 473.22L264.11 473.28L264.08 473.34L264.04 473.4L264.01 473.46L263.97 473.52L263.93 473.58L263.89 473.63L263.85 473.69L263.81 473.74L263.76 473.8L263.72 473.85L263.67 473.9L263.62 473.95L263.59 473.98L263.55 474.01L263.51 474.04L263.48 474.08L263.43 474.11L263.39 474.14L263.35 474.17L263.3 474.2L263.25 474.22L263.2 474.25L263.15 474.28L263.09 474.31L263.04 474.34L262.98 474.36L262.92 474.39L262.86 474.41L262.79 474.44L262.73 474.46L262.66 474.49L262.59 474.51L262.52 474.53L262.45 474.56L262.37 474.58L262.29 474.6L262.22 474.62L262.14 474.64L262.05 474.66L261.97 474.68L261.88 474.7L261.79 474.72L261.7 474.74L250.87 474.74L271.56 497.61L292.25 474.74L281.42 474.74L281.35 474.74L281.28 474.74L281.21 474.73L281.14 474.73L281.07 474.72L281 474.71L280.94 474.7L280.87 474.69L280.8 474.67L280.74 474.66L280.67 474.64L280.6 474.62L280.54 474.6L280.47 474.57L280.41 474.55L280.35 474.52L280.28 474.5L280.22 474.47L280.16 474.43L280.1 474.4L280.04 474.37L279.98 474.33L279.93 474.3L279.87 474.26L279.81 474.22L279.76 474.18L279.7 474.13L279.65 474.09L279.6 474.04L279.55 474L279.5 473.95L279.45 473.9L279.4 473.85L279.36 473.8L279.31 473.74L279.27 473.69L279.23 473.63L279.19 473.58L279.15 473.52L279.11 473.46L279.08 473.4L279.05 473.34L279.01 473.28L278.98 473.22L278.95 473.16L278.93 473.1L278.9 473.04L278.87 472.97L278.85 472.91L278.83 472.84L278.81 472.78L278.79 472.71L278.78 472.65L278.76 472.58L278.75 472.51L278.74 472.44L278.73 472.38L278.72 472.31L278.71 472.24L278.71 472.17L278.71 472.1L278.71 472.03L278.71 446.97L264.42 446.97L264.42 472.03Z" id="a2PhaNOubd"></path></defs><g><g><use xlink:href="#k3zI9CkfsK" opacity="1" fill="#ee3138" fill-opacity="1"></use><g><use xlink:href="#k3zI9CkfsK" opacity="1" fill-opacity="0" stroke="#000000" stroke-width="1" stroke-opacity="0"></use></g></g><g><use xlink:href="#e31NHXH6u" opacity="1" fill="#ee3138" fill-opacity="1"></use><g><use xlink:href="#e31NHXH6u" opacity="1" fill-opacity="0" stroke="#000000" stroke-width="1" stroke-opacity="0"></use></g></g><g><use xlink:href="#d1RrGK5kj5" opacity="1" fill="#ee3138" fill-opacity="1"></use><g><use xlink:href="#d1RrGK5kj5" opacity="1" fill-opacity="0" stroke="#000000" stroke-width="1" stroke-opacity="0"></use></g></g><g><use xlink:href="#a2PhaNOubd" opacity="1" fill="#ee3138" fill-opacity="1"></use><g><use xlink:href="#a2PhaNOubd" opacity="1" fill-opacity="0" stroke="#000000" stroke-width="1" stroke-opacity="0"></use></g></g></g></svg>